<svg xmlns="http://www.w3.org/2000/svg" xmlns:xlink="http://www.w3.org/1999/xlink" width="100" zoomAndPan="magnify" viewBox="0 0 75 74.999997" height="100" preserveAspectRatio="xMidYMid meet" version="1.0"><path fill="#3d5a98" d="M 70.855469 74.996094 C 73.140625 74.996094 74.992188 73.140625 74.992188 70.855469 L 74.992188 4.140625 C 74.992188 1.851562 73.140625 0 70.855469 0 L 4.140625 0 C 1.851562 0 0 1.851562 0 4.140625 L 0 70.855469 C 0 73.140625 1.851562 74.996094 4.140625 74.996094 Z M 70.855469 74.996094 " fill-opacity="1" fill-rule="nonzero"/><path fill="#ffffff" d="M 51.746094 74.996094 L 51.746094 45.953125 L 61.492188 45.953125 L 62.953125 34.632812 L 51.746094 34.632812 L 51.746094 27.410156 C 51.746094 24.132812 52.65625 21.898438 57.355469 21.898438 L 63.347656 21.894531 L 63.347656 11.773438 C 62.308594 11.636719 58.753906 11.328125 54.613281 11.328125 C 45.972656 11.328125 40.058594 16.601562 40.058594 26.289062 L 40.058594 34.632812 L 30.285156 34.632812 L 30.285156 45.953125 L 40.058594 45.953125 L 40.058594 74.996094 Z M 51.746094 74.996094 " fill-opacity="1" fill-rule="nonzero"/></svg>