<svg xmlns="http://www.w3.org/2000/svg" xmlns:xlink="http://www.w3.org/1999/xlink" width="100" zoomAndPan="magnify" viewBox="0 0 75 74.999997" height="100" preserveAspectRatio="xMidYMid meet" version="1.0"><path fill="#0d4f83" d="M 75.003906 63.605469 C 75.003906 69.902344 69.902344 75.003906 63.609375 75.003906 L 11.402344 75.003906 C 5.109375 75.003906 0.0078125 69.902344 0.0078125 63.605469 L 0.0078125 11.402344 C 0.0078125 5.109375 5.109375 0.0078125 11.402344 0.0078125 L 63.609375 0.0078125 C 69.902344 0.0078125 75.003906 5.109375 75.003906 11.402344 Z M 75.003906 63.605469 " fill-opacity="1" fill-rule="nonzero"/><path fill="#ffffff" d="M 21.8125 16.632812 L 54.234375 16.632812 C 57.3125 16.632812 59.832031 19.148438 59.832031 22.230469 L 59.832031 54.652344 C 59.832031 57.730469 57.3125 60.25 54.234375 60.25 L 21.8125 60.25 C 18.730469 60.25 16.210938 57.730469 16.210938 54.652344 L 16.210938 22.230469 C 16.210938 19.148438 18.730469 16.632812 21.8125 16.632812 Z M 47.988281 21.476562 C 46.90625 21.476562 46.023438 22.363281 46.023438 23.441406 L 46.023438 28.140625 C 46.023438 29.222656 46.90625 30.105469 47.988281 30.105469 L 52.917969 30.105469 C 53.996094 30.105469 54.878906 29.222656 54.878906 28.140625 L 54.878906 23.441406 C 54.878906 22.363281 53.996094 21.476562 52.917969 21.476562 Z M 54.898438 35.078125 L 51.0625 35.078125 C 51.425781 36.265625 51.621094 37.519531 51.621094 38.820312 C 51.621094 46.074219 45.550781 51.957031 38.0625 51.957031 C 30.574219 51.957031 24.503906 46.074219 24.503906 38.820312 C 24.503906 37.519531 24.703125 36.265625 25.0625 35.078125 L 21.058594 35.078125 L 21.058594 53.503906 C 21.058594 54.457031 21.839844 55.234375 22.792969 55.234375 L 53.167969 55.234375 C 54.121094 55.234375 54.898438 54.457031 54.898438 53.503906 Z M 38.0625 29.859375 C 33.226562 29.859375 29.304688 33.65625 29.304688 38.347656 C 29.304688 43.035156 33.226562 46.835938 38.0625 46.835938 C 42.898438 46.835938 46.824219 43.035156 46.824219 38.347656 C 46.824219 33.65625 42.898438 29.859375 38.0625 29.859375 Z M 38.0625 29.859375 " fill-opacity="1" fill-rule="nonzero"/></svg>