<svg xmlns="http://www.w3.org/2000/svg" xmlns:xlink="http://www.w3.org/1999/xlink" width="100" zoomAndPan="magnify" viewBox="0 0 75 74.999997" height="100" preserveAspectRatio="xMidYMid meet" version="1.0"><path fill="#d2252d" d="M 75 63.601562 C 75 69.898438 69.894531 74.992188 63.609375 74.992188 L 11.390625 74.992188 C 5.09375 74.992188 0 69.886719 0 63.601562 L 0 11.398438 C 0 5.113281 5.09375 0.0078125 11.390625 0.0078125 L 63.59375 0.0078125 C 69.894531 0.0078125 74.988281 5.113281 74.988281 11.398438 Z M 75 63.601562 " fill-opacity="1" fill-rule="nonzero"/><path fill="#ffffff" d="M 36.652344 13.886719 C 23.121094 13.886719 12.167969 24.851562 12.167969 38.367188 C 12.167969 48.398438 18.207031 57.003906 26.828125 60.800781 C 26.761719 59.089844 26.8125 57.042969 27.253906 55.191406 C 27.734375 53.195312 30.40625 41.839844 30.40625 41.839844 C 30.40625 41.839844 29.613281 40.285156 29.613281 37.964844 C 29.613281 34.335938 31.726562 31.628906 34.332031 31.628906 C 36.546875 31.628906 37.636719 33.300781 37.636719 35.296875 C 37.636719 37.539062 36.199219 40.882812 35.472656 43.980469 C 34.851562 46.570312 36.769531 48.699219 39.332031 48.699219 C 43.972656 48.699219 47.097656 42.734375 47.097656 35.671875 C 47.097656 30.308594 43.480469 26.289062 36.910156 26.289062 C 29.484375 26.289062 24.859375 31.824219 24.859375 38.019531 C 24.859375 40.144531 25.492188 41.660156 26.476562 42.8125 C 26.929688 43.359375 26.996094 43.566406 26.828125 44.175781 C 26.722656 44.628906 26.4375 45.714844 26.335938 46.132812 C 26.167969 46.753906 25.675781 46.972656 25.117188 46.753906 C 21.695312 45.367188 20.101562 41.621094 20.101562 37.410156 C 20.101562 30.449219 25.960938 22.101562 37.609375 22.101562 C 46.953125 22.101562 53.125 28.882812 53.125 36.125 C 53.125 45.742188 47.785156 52.910156 39.902344 52.910156 C 37.261719 52.910156 34.773438 51.472656 33.917969 49.851562 C 33.917969 49.851562 32.492188 55.5 32.191406 56.578125 C 31.675781 58.457031 30.652344 60.363281 29.730469 61.824219 C 31.933594 62.472656 34.265625 62.824219 36.675781 62.824219 C 50.207031 62.824219 61.160156 51.859375 61.160156 38.34375 C 61.144531 24.863281 50.167969 13.886719 36.652344 13.886719 Z M 36.652344 13.886719 " fill-opacity="1" fill-rule="nonzero"/></svg>